HIERARCHY
ROOT Hips
{
	OFFSET -3.958830 18.904000 13.208200
	CHANNELS 6 Xposition Yposition Zposition Zrotation Yrotation Xrotation 
	JOINT LHipJoint
	{
		OFFSET 0.000000 0.000000 0.000000
		CHANNELS 3 Zrotation Yrotation Xrotation
		JOINT LeftUpLeg
		{
			OFFSET 1.800000 -1.400000 0.085000
			CHANNELS 3 Zrotation Yrotation Xrotation
			JOINT LeftLeg
			{
				OFFSET 2.215000 -6.000000 0.000000
				CHANNELS 3 Zrotation Yrotation Xrotation
				JOINT LeftFoot
				{
					OFFSET 2.500000 -6.900000 0.000000
					CHANNELS 3 Zrotation Yrotation Xrotation
					JOINT LeftToeBase
					{
						OFFSET 0.200000 -0.500000 1.950000
						CHANNELS 3 Zrotation Yrotation Xrotation
						End Site
						{
							OFFSET 0.000000 0.000000 0.000000
						}
					}
				}
			}
		}
	}
	JOINT RHipJoint
	{
		OFFSET 0.000000 0.000000 0.000000
		CHANNELS 3 Zrotation Yrotation Xrotation
		JOINT RightUpLeg
		{
			OFFSET -1.800000 -1.400000 0.085000
			CHANNELS 3 Zrotation Yrotation Xrotation
			JOINT RightLeg
			{
				OFFSET -2.215000 -6.000000 0.000000
				CHANNELS 3 Zrotation Yrotation Xrotation
				JOINT RightFoot
				{
					OFFSET -2.500000 -6.900000 0.000000
					CHANNELS 3 Zrotation Yrotation Xrotation
					JOINT RightToeBase
					{
						OFFSET -0.200000 -0.500000 1.950000
						CHANNELS 3 Zrotation Yrotation Xrotation
						End Site
						{
							OFFSET 0.000000 0.000000 0.000000
						}
					}
				}
			}
		}
	}
	JOINT LowerBack
	{
		OFFSET 0.000000 0.000000 0.000000
		CHANNELS 3 Zrotation Yrotation Xrotation
		JOINT Spine
		{
			OFFSET -0.087000 1.940000 -0.288900
			CHANNELS 3 Zrotation Yrotation Xrotation
			JOINT Spine1
			{
				OFFSET 0.000000 1.950000 0.060000
				CHANNELS 3 Zrotation Yrotation Xrotation
				JOINT Neck
				{
					OFFSET 0.000000 0.000000 0.000000
					CHANNELS 3 Zrotation Yrotation Xrotation
					JOINT Neck1
					{
						OFFSET 0.000000 1.600000 0.340000
						CHANNELS 3 Zrotation Yrotation Xrotation
						JOINT Head
						{
							OFFSET 0.000000 1.667000 -0.240000
							CHANNELS 3 Zrotation Yrotation Xrotation
							End Site
							{
								OFFSET 0.000000 0.000000 0.000000
							}
						}
					}
				}
				JOINT LeftShoulder
				{
					OFFSET 0.000000 0.000000 0.000000
					CHANNELS 3 Zrotation Yrotation Xrotation
					JOINT LeftArm
					{
						OFFSET 2.700000 1.550000 -0.730000
						CHANNELS 3 Zrotation Yrotation Xrotation
						JOINT LeftForeArm
						{
							OFFSET 5.450000 0.000000 0.000000
							CHANNELS 3 Zrotation Yrotation Xrotation
							JOINT LeftHand
							{
								OFFSET 3.450000 0.000000 0.000000
								CHANNELS 3 Zrotation Yrotation Xrotation
								JOINT LeftHandIndex1
								{
									OFFSET 0.750000 0.000000 0.000000
									CHANNELS 3 Zrotation Yrotation Xrotation
									End Site
									{
										OFFSET 0.000000 0.000000 0.000000
									}
								}
							}
						}
					}
				}
				JOINT RightShoulder
				{
					OFFSET 0.000000 0.000000 0.000000
					CHANNELS 3 Zrotation Yrotation Xrotation
					JOINT RightArm
					{
						OFFSET -2.700000 1.550000 -0.730000
						CHANNELS 3 Zrotation Yrotation Xrotation
						JOINT RightForeArm
						{
							OFFSET -5.450000 0.000000 0.000000
							CHANNELS 3 Zrotation Yrotation Xrotation
							JOINT RightHand
							{
								OFFSET -3.450000 0.000000 0.000000
								CHANNELS 3 Zrotation Yrotation Xrotation
								JOINT RightHandIndex1
								{
									OFFSET -0.750000 0.000000 0.000000
									CHANNELS 3 Zrotation Yrotation Xrotation
									End Site
									{
										OFFSET 0.000000 0.000000 0.000000
									}
								}
							}
						}
					}
				}
			}
		}
	}
}
MOTION
Frames: 13
Frame Time: 0.016667
0.072520 17.083110 -0.915970 -4.284184 -3.429059 9.195505 -15.432243 12.652295 3.395609 1.893025 0.096561 -4.756666 -9.490446 3.576559 -4.216969 -0.025714 3.912191 3.512157 0.145280 -0.077940 0.068610 17.846139 -10.567348 3.291547 -27.262793 1.014470 -11.468386 4.313581 -3.757677 -1.083950 -0.361946 -4.183786 2.981743 -0.050620 0.275820 0.161470 -2.526822 -0.853543 -8.342011 -2.512602 1.189225 -1.839394 6.070018 1.086754 -12.843713 2.263330 -0.071009 -13.780764 -2.790320 2.878662 49.587811 -1.616400 3.010590 3.115490 -6.894397 -5.969026 4.370020 4.087111 5.395701 0.393492 8.388455 -5.193645 -0.229706 -4.080437 2.565501 0.390200 0.193500 -0.050470 0.158830 4.105434 7.577824 8.725108 1.384405 -1.916313 -0.400081 -3.052067 0.400417 -0.029833 2.602611 -1.107551 -0.167810 0.139810 -0.000590 -0.139770 
0.068440 17.084020 -0.921680 -4.243061 -3.484313 8.767208 -15.450699 12.660111 3.381748 2.014259 0.176523 -4.344317 -9.536166 3.618339 -4.193869 -0.026681 3.952866 3.495406 0.158820 -0.077690 0.088400 17.839522 -10.535315 3.268723 -27.291252 0.959071 -11.064851 4.322547 -3.803163 -1.128750 -0.384837 -4.197998 2.981677 -0.057280 0.256410 0.160700 -2.493526 -0.944354 -8.303845 -2.699516 1.326818 -1.916281 6.240082 1.097927 -11.608784 2.245147 -0.092365 -13.998062 -3.130496 2.844957 50.183197 -1.395870 2.763770 2.513690 -8.364132 -7.142190 4.715193 5.720424 6.590828 0.479817 7.882038 -4.859435 -0.279805 -4.042068 2.558937 0.428050 0.171380 -0.030450 0.156980 5.753587 8.554906 8.962041 -0.493531 -3.286490 -0.478269 -2.875332 0.300117 -0.008799 2.590687 -1.091112 -0.169740 0.145380 -0.004790 -0.152440 
0.060980 17.084630 -0.923600 -4.254116 -3.497270 8.449619 -15.458265 12.670376 3.365652 2.185988 0.236620 -4.064285 -9.553846 3.664274 -4.099959 -0.039882 3.987587 3.482877 0.163090 -0.080990 0.094010 17.839462 -10.509109 3.258327 -27.234976 0.934763 -10.675299 4.334567 -3.823251 -1.268247 -0.399173 -4.215519 2.985142 -0.058900 0.248810 0.152400 -2.485314 -1.019078 -8.275209 -2.664620 1.415528 -1.996538 6.189937 1.127742 -10.767952 2.188924 -0.145466 -14.080021 -3.469863 2.859638 50.560759 -1.172770 2.546030 2.006250 -9.315076 -7.888206 4.846178 7.220486 7.183113 0.576615 6.765896 -4.526526 -0.343536 -4.019427 2.544878 0.457470 0.158820 -0.024470 0.153320 6.896623 9.175597 9.109311 -1.729982 -4.192478 -0.515986 -2.815764 0.023589 0.006675 2.576086 -1.076351 -0.180490 0.158140 -0.000300 -0.164530 
0.053010 17.086150 -0.923590 -4.293773 -3.441694 8.265747 -15.463422 12.677770 3.353611 2.405541 0.257915 -3.927832 -9.602470 3.700018 -4.032704 -0.045869 4.020257 3.471030 0.161990 -0.089810 0.095550 17.838627 -10.484678 3.256964 -27.150096 0.929308 -10.357341 4.368542 -3.828043 -1.445224 -0.408491 -4.234420 2.982266 -0.063010 0.247700 0.151550 -2.479398 -1.079504 -8.258493 -2.565171 1.454730 -2.121754 6.146348 1.137123 -10.295789 2.154501 -0.247946 -14.112548 -3.863257 2.905739 50.822186 -1.040930 2.348220 1.858740 -9.999493 -8.352753 4.882843 8.180225 7.358495 0.638710 5.873733 -4.136718 -0.399851 -4.010665 2.540869 0.472620 0.153070 -0.022740 0.150090 7.714233 9.599197 9.209425 -2.643815 -4.841633 -0.534363 -2.807206 -0.362040 0.013294 2.572215 -1.069852 -0.186440 0.163300 0.005890 -0.170040 
0.044960 17.088470 -0.922910 -4.318938 -3.439638 8.160168 -15.461145 12.678980 3.346092 2.570612 0.268994 -3.841648 -9.605199 3.714520 -4.012653 -0.048520 4.039001 3.464642 0.161880 -0.096290 0.097780 17.842289 -10.471558 3.264020 -27.129142 0.923616 -10.201613 4.473373 -3.840130 -1.548370 -0.417814 -4.244855 2.976783 -0.066010 0.246030 0.151000 -2.488513 -1.104535 -8.255998 -2.421606 1.481057 -2.253919 5.962803 1.159170 -10.097707 2.105332 -0.276413 -14.171244 -4.070219 2.942659 51.216297 -0.754510 2.155730 1.804210 -10.412951 -8.657049 4.899850 8.768367 7.394523 0.671728 5.269033 -3.897230 -0.437537 -4.001029 2.537902 0.486000 0.144990 -0.017280 0.150620 8.254859 9.819555 9.311384 -2.869357 -5.313231 -0.575507 -3.390360 -0.550672 0.061871 2.572820 -1.065341 -0.191270 0.168360 0.008120 -0.172610 
0.037360 17.093860 -0.921110 -4.522675 -3.434454 8.016546 -15.458413 12.710477 3.347841 2.917299 0.274017 -3.744404 -9.571096 3.735555 -3.983238 -0.060337 4.066028 3.452692 0.167730 -0.096540 0.102910 17.840871 -10.462722 3.256171 -26.860820 0.924573 -9.979816 4.450186 -3.825309 -1.636551 -0.424868 -4.229425 2.987917 -0.064770 0.240730 0.146740 -2.491818 -1.180860 -8.260081 -1.947495 1.456544 -2.333852 5.766098 1.165785 -10.003017 2.104625 -0.478299 -14.214448 -4.690783 3.179109 51.907344 -0.485200 2.000280 1.531420 -10.847740 -8.809388 4.864039 9.046538 7.406861 0.698433 4.785117 -3.740117 -0.474476 -3.988034 2.529204 0.507240 0.135020 -0.012600 0.147590 8.742094 10.059901 9.375760 -3.250342 -5.533154 -0.618423 -3.855398 -0.947465 0.105960 2.570076 -1.055202 -0.198030 0.176590 0.011870 -0.180520 
0.032410 17.099370 -0.920870 -4.673124 -3.359526 7.961427 -15.455158 12.737723 3.350820 3.149938 0.260247 -3.754519 -9.532579 3.750142 -3.930752 -0.064984 4.073908 3.448544 0.172200 -0.095100 0.108930 17.838545 -10.458184 3.255341 -26.726630 0.920785 -9.870743 4.467407 -3.817805 -1.663141 -0.428214 -4.214752 2.996388 -0.063690 0.236090 0.140280 -2.494575 -1.238804 -8.272645 -1.557130 1.404826 -2.372625 5.662475 1.149700 -10.104340 2.114478 -0.681387 -14.262626 -5.266921 3.379135 52.432299 -0.289810 1.857460 1.397510 -11.010086 -8.781444 4.830593 8.792080 7.225624 0.678518 4.830186 -3.630328 -0.482658 -3.980718 2.518863 0.517590 0.126050 -0.008980 0.146360 8.924525 10.164134 9.418843 -3.333266 -5.671321 -0.640953 -3.994634 -1.129754 0.126355 2.572493 -1.045376 -0.201490 0.184360 0.011490 -0.183910 
0.027680 17.106130 -0.922850 -4.770108 -3.259919 7.935706 -15.452287 12.760469 3.358346 3.292104 0.247352 -3.789591 -9.497813 3.749543 -3.930957 -0.065890 4.066497 3.446498 0.177940 -0.084860 0.111300 17.835797 -10.454634 3.256360 -26.661139 0.914618 -9.807136 4.444920 -3.806608 -1.677071 -0.433462 -4.198693 3.002795 -0.059550 0.227070 0.132480 -2.496325 -1.289146 -8.292748 -1.238745 1.326012 -2.384097 5.545537 1.107565 -10.313436 2.116630 -0.846077 -14.294278 -5.763991 3.583627 53.066750 -0.031870 1.739090 1.222010 -11.281268 -8.779827 4.786869 8.713954 7.218929 0.667523 5.061315 -3.739864 -0.467950 -3.964139 2.515458 0.525820 0.114360 -0.000810 0.146480 9.225722 10.260761 9.418422 -3.497680 -5.787019 -0.653660 -4.027472 -1.061343 0.136373 2.572860 -1.036712 -0.201080 0.190020 0.008050 -0.183780 
0.022970 17.112880 -0.925840 -4.871713 -3.159587 7.925349 -15.449950 12.780856 3.366053 3.427240 0.219617 -3.853702 -9.431047 3.734780 -3.965349 -0.059285 4.054864 3.449874 0.184830 -0.072810 0.113970 17.833116 -10.447919 3.258896 -26.608460 0.913474 -9.774683 4.421063 -3.788009 -1.705526 -0.438533 -4.187046 3.006258 -0.056050 0.221440 0.129850 -2.497834 -1.339732 -8.314093 -0.919416 1.259211 -2.351078 5.453525 1.074156 -10.543714 2.132625 -1.006018 -14.280149 -6.219962 3.736109 53.448426 0.043750 1.659730 1.216980 -11.615183 -8.737235 4.704732 8.682824 7.212195 0.655796 5.508990 -3.947037 -0.439472 -3.948607 2.521928 0.525790 0.107350 0.006330 0.150340 9.554649 10.333495 9.397060 -3.724665 -5.940037 -0.649107 -3.996686 -0.856595 0.129794 2.573834 -1.037932 -0.195870 0.190900 0.000310 -0.179150 
0.017620 17.119360 -0.932420 -4.911901 -3.116980 7.884282 -15.449117 12.800336 3.378390 3.477570 0.200602 -3.869399 -9.348592 3.708094 -4.045327 -0.051211 4.039391 3.451800 0.198520 -0.054210 0.122080 17.829839 -10.446782 3.253061 -26.587263 0.899185 -9.810971 4.446198 -3.791213 -1.601321 -0.445267 -4.168121 3.008150 -0.051040 0.209850 0.130970 -2.495617 -1.385028 -8.332752 -0.720091 1.222054 -2.231203 5.367519 1.060814 -10.722904 2.140601 -1.151150 -14.236439 -6.637299 3.879934 53.754287 0.134650 1.607100 0.971760 -11.977260 -8.690394 4.608457 8.737922 7.193450 0.648940 5.904991 -4.082638 -0.418876 -3.930136 2.534137 0.527850 0.096530 0.018500 0.154520 9.930595 10.395050 9.353744 -3.932658 -6.063103 -0.639518 -3.870501 -0.531023 0.119633 2.572303 -1.040898 -0.185460 0.188240 -0.009820 -0.175410 
0.011810 17.121930 -0.939270 -4.895371 -3.096855 7.847256 -15.451282 12.800992 3.390469 3.496988 0.192747 -3.843665 -9.381470 3.685553 -4.205797 -0.055957 4.049053 3.451680 0.205890 -0.049640 0.125910 17.828268 -10.438009 3.248520 -26.625321 0.891017 -9.837102 4.462614 -3.797065 -1.563077 -0.446233 -4.164537 3.013737 -0.046190 0.210370 0.126300 -2.491550 -1.410353 -8.343251 -0.687866 1.211405 -2.144812 5.354584 1.058678 -10.755967 2.123737 -1.244396 -14.206592 -6.881280 3.998393 53.818369 0.264840 1.570510 0.848470 -12.134832 -8.675004 4.555941 8.758470 7.153840 0.654875 5.949339 -4.221352 -0.416276 -3.919994 2.532423 0.536570 0.093800 0.018490 0.159960 10.144268 10.436771 9.339105 -4.049933 -6.190875 -0.636287 -3.693663 -0.372308 0.107156 2.562819 -1.039954 -0.191540 0.194890 -0.014370 -0.178440 
0.008000 17.125750 -0.945870 -4.991676 -2.980874 7.872963 -15.444550 12.817906 3.404527 3.608616 0.151360 -3.944293 -9.373388 3.666558 -4.279339 -0.047533 4.043342 3.456317 0.209240 -0.042840 0.122060 17.829512 -10.441208 3.242359 -26.497962 0.887007 -9.870947 4.414134 -3.779086 -1.522533 -0.445152 -4.146241 3.025029 -0.045070 0.213670 0.127170 -2.505153 -1.444581 -8.361940 -0.413257 1.151361 -2.062689 5.198941 1.032222 -10.957769 2.116090 -1.323399 -14.215917 -7.094032 4.117969 53.906132 0.419850 1.521740 1.015780 -12.212214 -8.651670 4.507267 8.769230 7.053653 0.645389 5.862215 -4.271752 -0.409056 -3.915350 2.538483 0.531720 0.094730 0.019760 0.167660 10.228976 10.462106 9.350902 -4.052836 -6.336260 -0.620330 -3.534306 -0.311050 0.095287 2.563416 -1.043972 -0.186990 0.194710 -0.020130 -0.171990 
0.005100 17.126110 -0.950060 -5.081047 -2.885293 7.846471 -15.443853 12.818234 3.413808 3.777817 0.138088 -3.896589 -9.469563 3.659753 -4.436334 -0.029711 4.066126 3.452115 0.215010 -0.036270 0.119940 17.832464 -10.432165 3.227258 -26.409544 0.876280 -9.813244 4.407392 -3.773993 -1.484064 -0.443678 -4.148518 3.026956 -0.042980 0.219210 0.133550 -2.513834 -1.473981 -8.355520 -0.214196 1.148574 -2.032650 5.195822 1.034953 -10.839225 2.097213 -1.422959 -14.124769 -7.276367 4.182563 53.465362 0.533610 1.435890 1.179470 -12.269643 -8.560185 4.442877 8.567667 6.732099 0.621357 5.849313 -4.101260 -0.413136 -3.919033 2.555973 0.518580 0.099840 0.016100 0.175250 10.322205 10.445779 9.318601 -4.319345 -6.534848 -0.569574 -3.068825 -0.465590 0.050920 2.565719 -1.058469 -0.178350 0.188300 -0.025810 -0.164560 
